<?xml version="1.0" encoding="UTF-8"?>
<!DOCTYPE svg PUBLIC "-//W3C//DTD SVG 1.0//EN" "http://www.w3.org/TR/2001/REC-SVG-20010904/DTD/svg10.dtd">
<!-- Creator: CorelDRAW X8 -->
<svg xmlns="http://www.w3.org/2000/svg" xml:space="preserve" width="203px" height="25px" version="1.0" style="shape-rendering:geometricPrecision; text-rendering:geometricPrecision; image-rendering:optimizeQuality; fill-rule:evenodd; clip-rule:evenodd"
viewBox="0 0 1917 236"
 xmlns:xlink="http://www.w3.org/1999/xlink">
 <defs>
  <style type="text/css">
   <![CDATA[
    .fil1 {fill:black}
    .fil2 {fill:#ED3237}
    .fil3 {fill:#FAA831}
    .fil0 {fill:white}
    .fil4 {fill:black;fill-rule:nonzero}
    .fil5 {fill:#B5090E;fill-rule:nonzero}
   ]]>
  </style>
 </defs>
 <g id="Layer_x0020_1">
  <metadata id="CorelCorpID_0Corel-Layer"/>
  <polygon class="fil0" points="0,0 1917,0 1917,236 0,236 "/>
  <g id="_2197065329408">
   <g>
    <path class="fil1" d="M79 234c-1,0 -1,-1 -2,-1 1,-5 1,-10 1,-15 0,-4 -1,-8 -1,-12 1,-1 1,-1 2,-2 5,0 10,1 16,1 4,0 9,1 10,6 0,0 0,1 0,2 -1,3 -4,4 -7,5 0,0 0,0 0,0 2,1 5,2 7,4 0,0 1,1 1,1 0,1 0,2 1,2 0,1 0,1 0,2 -1,5 -7,6 -12,7 -5,0 -11,0 -16,0zm31 2c-1,-2 -2,-3 -3,-4 5,-7 10,-13 14,-20 -1,-1 -2,-2 -3,-4 2,-1 8,-5 9,-5 3,5 6,9 9,14 3,4 6,9 9,13 -2,2 -5,4 -8,6 -4,-7 -9,-13 -13,-19 -1,2 -3,4 -5,6 -3,4 -6,9 -9,13zm39 -2c0,0 -1,0 -2,-1 1,-4 1,-9 1,-13 0,-5 0,-10 -1,-14 1,-1 1,-1 2,-2 5,0 10,0 15,1 1,0 2,0 3,0 4,1 7,4 7,8 0,3 0,4 -2,6 -2,2 -4,3 -7,4 -2,0 -5,1 -8,1 0,3 1,7 1,10 -3,0 -6,0 -9,0zm8 -12c0,-5 0,-10 0,-15 3,0 6,1 8,4 0,0 0,1 0,1 0,2 1,3 0,5 -1,2 -4,4 -6,4 -1,0 -1,0 -2,1zm21 12c-1,0 -1,-1 -2,-1 2,-1 4,-1 5,-3 0,0 0,0 1,-1 0,0 0,-1 0,-2 -1,-3 -3,-7 -5,-10 0,-1 0,-2 0,-3 0,-1 0,-1 0,-2 0,-2 1,-4 2,-5 3,-2 6,-3 9,-3 1,0 1,1 2,1 -2,1 -3,1 -4,3 -1,0 -1,0 -1,1 0,1 0,3 0,4 2,3 3,6 4,9 0,2 1,4 0,6 0,0 -1,1 -1,2 0,0 -1,1 -1,1 -2,1 -4,2 -5,3 -2,0 -3,0 -4,0zm-91 -16c0,-4 0,-7 0,-11 3,0 6,0 8,3 0,0 0,1 1,2 0,0 0,1 0,1 -1,4 -6,5 -9,5zm0 14c0,-4 0,-8 0,-12 4,1 9,1 10,5 1,6 -6,6 -10,7z"/>
    <path class="fil2" d="M123 234c-3,-1 -5,-2 -5,-6 1,-3 5,-4 8,-3 2,1 2,2 3,4 0,0 0,0 0,0 0,4 -3,5 -6,5z"/>
    <path class="fil2" d="M83 186c-1,-2 -3,-3 -3,-5 -1,-1 -2,-2 -3,-3 0,-1 0,-1 0,-2 1,0 1,0 1,0 1,0 1,0 1,1 0,-2 1,-3 1,-5 -2,0 -3,0 -4,0 -1,-1 -2,-1 -2,-2 11,0 22,0 33,0 -1,-2 -1,-4 0,-5 1,0 1,-1 2,-1 0,0 0,0 1,0 2,0 4,1 6,2 1,1 3,2 2,3 -2,-1 -6,-4 -8,-2 0,0 -1,0 -1,1 0,0 0,1 0,2 27,0 55,0 83,0 0,1 1,1 1,2 -1,0 -2,0 -3,0 0,4 0,9 0,13 -1,-1 -2,-1 -3,-2 0,-4 0,-7 0,-11 -1,0 -2,0 -3,0 0,3 0,5 0,8 -1,0 -1,1 -2,1 0,1 -1,1 -1,1 -2,0 -4,-1 -4,-2 -1,-1 -1,-2 -2,-2 0,-2 0,-4 0,-6 -1,0 -2,0 -3,0 0,4 0,9 0,13 -1,-1 -2,-1 -3,-2 0,-1 0,-2 0,-2 -2,1 -4,1 -6,-1 -1,0 -3,-3 -2,-4 1,-1 2,-1 3,-2 0,0 0,-1 0,-2 -2,0 -5,0 -7,0 0,4 0,9 0,13 0,-1 -1,-2 -2,-2 0,-4 0,-7 0,-11 -2,0 -3,0 -4,0 -1,2 -1,4 -1,6 0,1 -1,1 -1,2 1,1 2,3 3,4 0,0 0,1 -1,1 -1,-2 -3,-5 -5,-7 0,0 -1,-1 -1,-2 0,0 0,0 1,0 0,0 0,0 0,0 1,0 2,1 2,0 0,-1 0,-2 0,-4 -2,0 -4,0 -6,0 0,4 0,9 0,13 -1,-1 -2,-1 -2,-2 0,-4 0,-7 0,-11 -2,0 -3,0 -4,0 0,4 0,9 0,13 -1,-1 -1,-2 -2,-2 0,-2 0,-4 0,-6 -1,0 -3,0 -4,0 0,1 0,1 0,2 0,0 -1,0 -1,0 -1,-1 -3,-2 -3,-4 1,0 1,0 1,0 2,0 4,0 7,0 0,-1 0,-2 0,-3 -4,0 -7,0 -10,0 0,4 0,9 0,13 -1,-1 -2,-1 -3,-2 0,-1 0,-2 0,-3 -1,0 -3,0 -4,0 0,0 0,1 0,1 -2,1 -4,-2 -4,-3 0,-1 0,-1 1,-1 0,-1 0,-3 0,-5 -1,0 -3,0 -4,0 0,4 0,9 0,13 -1,-1 -2,-1 -3,-2 0,-4 0,-7 0,-11 -1,0 -2,0 -4,0 0,4 0,9 0,13 -1,-1 -1,-1 -2,-2 0,-4 0,-7 0,-11 -1,0 -2,0 -3,0 -1,4 -1,9 -1,13 0,-1 -1,-1 -2,-2 0,-1 0,-2 0,-2 -1,0 -1,0 -2,1 -1,0 -1,0 -2,0 -2,0 -3,-1 -4,-3 -1,1 -2,1 -2,1 -1,0 -1,-1 -2,-1 0,0 -1,0 -1,-1 -1,1 -1,2 -2,2 1,2 3,3 4,5 -1,0 -1,0 -1,1zm7 -6c-2,0 -1,-1 -1,-2 0,-3 4,-2 6,-1 0,0 0,1 0,1 -2,1 -4,2 -5,2zm-7 -3c0,0 0,0 -1,0 0,-1 0,-3 0,-5 4,0 9,0 13,0 0,2 0,3 0,4 -1,-1 -2,-1 -3,-2 -2,-1 -4,0 -6,2 0,0 0,1 0,1 -1,0 -2,0 -3,0zm34 0c0,-1 0,-3 0,-5 1,0 3,0 4,0 0,2 0,4 0,5 -1,0 -3,0 -4,0zm47 2c-1,0 -1,-1 -1,-2 1,0 3,0 3,-1 0,-1 -1,-2 -1,-4 2,0 3,0 4,0 0,2 0,4 0,5 0,1 0,1 -1,1 -1,0 -2,1 -2,1 -1,0 -1,0 -2,0zm15 1c-1,-1 -1,-1 -1,-1 0,-2 0,-5 0,-7 1,0 2,0 3,0 0,2 0,4 0,6 0,1 -1,1 -2,2z"/>
    <path class="fil3" d="M131 163c-1,0 -3,-1 -5,-1 -1,-1 -2,-1 -4,-2 -2,-1 -4,-2 -6,-4 -2,-1 -3,-2 -5,-4 -1,-2 -2,-4 -3,-6 -1,-3 -2,-6 -3,-9 0,-22 0,-44 0,-66 1,0 3,0 4,0 0,22 0,44 1,67 0,3 1,6 3,9 1,2 2,3 3,4 2,3 5,4 8,6 1,0 1,0 2,1 1,0 3,0 4,0 1,0 3,1 5,1 3,-1 6,-1 8,-2 3,-2 6,-4 9,-6 0,-1 1,-2 1,-2 1,-2 2,-3 2,-4 1,-2 2,-5 3,-8 0,-22 0,-44 0,-66 1,0 3,0 4,0 0,22 0,43 0,65 -1,7 -3,14 -9,19 0,1 -1,1 -2,2 -1,0 -2,1 -3,2 -4,2 -9,3 -14,4 -1,0 -2,0 -3,0z"/>
    <path class="fil2" d="M132 132c-7,0 -13,-4 -17,-11 0,-1 -1,-3 -1,-4 -1,-3 -1,-5 -1,-8 1,-5 4,-9 7,-12 2,-1 4,-2 6,-3 1,-1 2,-1 3,-1 3,-1 5,-1 8,-1 4,1 8,4 12,7 0,1 0,1 1,2 2,3 3,6 3,9 0,1 0,1 0,2 0,1 0,2 0,3 -1,8 -6,14 -13,16 -1,1 -2,1 -3,1 -2,0 -3,0 -5,0z"/>
    <path class="fil1" d="M73 195c-2,0 -5,0 -8,0 0,0 0,0 0,0 -3,-1 -1,-6 2,-5 0,-11 0,-23 0,-34 1,-1 1,-1 2,-2 0,0 0,0 -1,-1 0,0 1,-1 1,-1 -2,-2 0,-3 1,-4 1,0 1,0 2,-1 2,0 4,2 4,4 0,0 -1,1 -1,1 0,0 0,0 1,1 0,1 -1,1 0,2 0,1 0,1 0,2 1,0 1,0 1,0 1,-8 1,-16 2,-25 -2,-1 -2,-2 -1,-4 0,-1 -1,-2 -1,-4 0,0 -1,0 -1,0 0,-2 0,-4 0,-7 -1,0 -2,-1 -2,-1 -1,-1 -1,-2 -2,-3 0,-1 0,-2 0,-4 -2,0 -3,0 -4,-1 0,-1 0,-1 0,-1 -1,-1 -1,-1 -1,-3 -1,-1 -1,-1 -1,-3 -2,-1 -4,-2 -4,-4 -1,-1 -1,-2 -1,-3 -1,1 -2,1 -3,1 -2,-2 -3,-5 -3,-8 1,-2 1,-3 1,-4 0,-1 0,-2 -1,-3 0,-2 0,-3 0,-4 0,-1 0,-2 0,-3 -2,0 -5,0 -8,0 0,-3 0,-6 0,-8 2,0 3,0 5,0 0,0 0,-1 0,-1 1,-1 0,-2 1,-3 0,-1 1,-2 1,-3 0,-1 1,-1 1,-2 1,0 1,0 1,0 1,2 4,5 2,8 0,0 1,1 1,1 1,-1 3,-2 4,-3 3,-2 6,-4 9,-5 0,-1 0,-2 1,-3 2,-1 3,0 5,1 1,0 0,-1 0,-2 0,0 0,-1 0,-2 1,-2 2,-3 3,-5 0,0 0,0 0,0 1,2 2,4 3,6 0,0 0,1 0,2 0,0 -1,0 -1,1 1,0 1,1 1,2 4,-1 7,-1 10,-3 4,-3 8,-5 12,-8 4,-3 9,-5 13,-7 1,-1 3,-1 4,-2 -1,-2 0,-3 1,-4 1,0 2,0 3,-1 -3,-10 -5,-21 -7,-31 0,-1 0,-1 0,-1 1,0 1,0 2,0 0,1 0,1 0,2 0,0 0,0 1,0 2,-1 4,-1 6,-1 7,0 13,6 20,5 1,0 2,-1 3,-1 0,2 -1,3 -3,4 -2,1 -4,2 -7,2 1,1 3,1 4,1 0,0 1,0 2,0 1,-1 2,-1 2,-1 0,0 0,1 0,1 -1,1 -2,2 -3,2 -1,1 -3,2 -5,2 -1,0 -2,0 -4,0 0,1 0,1 0,1 0,1 0,2 -1,3 0,0 1,1 1,1 0,0 0,1 0,1 1,1 2,2 2,4 0,1 0,2 -1,3 -1,0 -1,0 -2,1 0,0 0,0 1,0 0,1 2,2 2,2 1,1 2,1 3,1 1,1 2,3 1,4 2,1 5,2 7,3 7,4 14,9 21,14 1,0 1,0 2,1 3,0 6,2 9,1 0,0 0,-1 1,-1 -1,-2 -1,-3 0,-5 1,-2 1,-3 2,-4 1,2 4,5 3,7 0,1 0,1 0,2 0,0 0,0 0,0 1,0 1,-1 2,-1 1,0 1,-1 2,-1 0,0 1,0 2,0 0,2 0,3 0,4 1,1 2,1 3,1 2,1 4,2 5,3 2,1 4,2 5,4 0,0 1,-1 1,-2 0,0 0,-1 -1,-1 0,-1 1,-2 1,-3 1,-1 2,-2 3,-3 1,1 2,3 2,5 0,0 0,0 0,1 0,0 0,1 0,1 1,1 1,1 2,2 1,0 3,0 4,0 0,2 0,5 0,7 -1,0 -8,0 -8,1 0,2 0,5 0,7 -1,1 -1,2 -1,3 0,1 1,2 1,3 0,2 0,3 0,4 0,1 -1,2 -1,3 -1,0 -1,1 -2,2 -1,-1 -1,-1 -3,-1 0,1 0,2 0,3 -1,2 -3,3 -4,4 0,2 -1,2 -2,3 0,1 0,1 0,2 0,0 -1,0 -1,1 0,1 -1,2 -2,2 0,0 -1,0 -1,0 0,3 -1,5 -3,7 0,0 -1,1 -1,1 0,2 0,5 0,7 -1,0 -1,0 -2,0 0,2 0,3 -1,4 1,2 1,3 0,4 0,8 1,17 1,25 0,0 1,0 1,0 0,-1 0,-2 1,-3 0,0 0,0 0,-1 0,0 0,0 0,-1 -1,-3 0,-4 3,-5 0,0 1,0 1,0 2,1 3,2 3,4 0,0 0,0 -1,1 1,0 1,0 1,1 0,0 0,0 0,1 0,0 1,1 1,2 0,6 0,12 0,17 0,0 0,1 0,1 0,0 0,0 0,0 0,5 0,10 0,16 3,0 4,0 4,3 0,0 -1,1 -1,1 -1,0 -2,1 -3,1 -42,0 -85,0 -127,0zm118 -125c0,-2 1,-3 2,-5 1,0 1,-1 2,-1 0,-2 0,-3 0,-5 2,0 5,2 7,3 1,1 3,3 4,4 -5,1 -10,2 -15,4zm-64 -46c-1,-3 -1,-6 -2,-9 1,0 3,-1 4,0 0,0 0,1 -1,1 0,1 0,1 0,2 0,0 1,0 1,1 0,0 0,1 1,1 -1,1 -1,1 -1,2 -1,1 -1,2 -2,2zm-57 131c0,0 0,0 0,0 0,0 0,-1 1,-1 0,-1 -1,-1 -1,-2 0,0 1,0 1,0 -1,0 -1,-1 -1,-1 0,-2 1,-2 3,-2 1,0 2,1 1,2 0,0 0,1 0,1 0,0 0,0 0,0 0,0 0,1 0,1 0,0 0,1 -1,1 1,0 1,1 1,1 -1,0 -3,0 -4,0zm-1 2c0,0 0,0 0,-1 2,0 4,0 6,0 0,1 0,1 0,1 -2,0 -4,0 -6,0zm124 -2c0,0 1,-1 1,-1 0,0 0,0 0,0 0,0 0,-1 -1,-1 0,-1 1,-1 1,-1 -1,-1 -1,-1 -1,-2 1,-1 2,-1 2,-1 2,0 3,1 2,2 0,0 0,1 0,1 0,0 0,1 0,2 0,0 1,1 1,1 -2,0 -3,0 -5,0zm2 2c0,0 -1,0 -2,0 0,0 0,0 0,-1 2,0 4,0 6,0 0,1 0,1 0,1 -1,0 -3,0 -4,0zm-120 36c-3,0 -6,0 -9,0 0,0 -1,0 -1,-1 1,0 1,0 1,-1 45,0 90,0 136,0 0,1 0,1 0,2 -1,0 -1,0 -2,0 -41,0 -83,0 -125,0zm111 -139c-1,-1 -2,-2 -1,-3 0,-1 1,-1 1,-2 0,0 0,0 0,0 1,1 1,2 2,3 0,1 -1,2 -2,2zm0 3c-1,0 -1,0 -1,-1 0,0 0,0 0,-1 1,0 4,0 3,2 -1,0 -2,0 -2,0zm25 6c-1,-1 -1,-2 -1,-3 1,-1 1,-1 1,-2 1,0 1,1 1,1 1,2 2,3 -1,4zm-1 2c0,0 0,0 0,0 0,0 0,-1 1,-1 0,0 1,0 2,0 0,0 1,1 1,1 -2,0 -3,0 -4,0zm-20 8c0,0 0,0 0,0 0,0 0,-1 0,-1 9,-4 17,-5 26,-6 0,1 -1,1 -2,2 -2,0 -4,0 -6,0 -2,1 -5,1 -8,2 -1,0 -3,1 -4,1 -2,1 -4,2 -6,2zm0 4c0,0 0,-1 0,-2 1,0 2,-1 3,-1 3,-2 7,-2 10,-3 2,-1 4,-1 5,-1 2,-1 5,-1 7,-1 1,-1 3,-2 4,-2 0,1 -1,2 -1,4 -3,0 -6,0 -9,1 -7,1 -13,2 -19,5zm-62 -46c0,-1 0,-2 0,-2 0,0 1,0 1,0 0,1 0,2 -1,2zm-4 -19c0,-3 -1,-6 -1,-8 1,-1 2,1 2,2 0,2 1,5 -1,6zm16 3c-1,0 -2,-1 -2,-1 -1,0 -1,0 -1,-1 0,0 -1,-1 -1,-1 0,-1 0,-2 0,-3 0,-2 -2,-3 -3,-5 -1,0 -2,4 -2,5 0,1 0,2 0,3 0,0 -1,0 -1,0 0,1 0,1 0,1 -1,0 -2,0 -3,0 0,-2 0,-4 0,-6 0,-2 -1,-3 -2,-4 1,-1 5,-1 6,0 1,0 3,0 4,1 3,1 7,3 11,4 1,0 2,0 3,0 -3,2 -7,1 -10,1 0,1 1,2 2,3 1,1 2,1 3,1 0,0 1,0 1,1 -1,1 -4,1 -5,1zm-7 -4c-1,-1 -1,-1 -1,-2 0,-1 1,-1 1,-2 1,0 1,1 1,1 1,2 0,3 -1,3zm0 2c-1,0 -1,0 -1,-1 1,0 2,0 2,0 1,0 1,0 1,0 0,1 -1,1 -2,1zm0 7c-1,-1 -2,-1 -2,-2 -1,-2 0,-3 1,-4 1,0 2,0 3,0 1,1 1,2 2,3 -1,1 -2,2 -2,2 -1,0 -1,0 -2,1zm0 2c-1,0 -1,0 -2,-1 0,0 0,0 0,0 0,0 0,0 0,0 2,0 3,0 5,0 1,1 -2,0 -3,1zm0 6c-2,0 -6,-1 -4,-4 1,-1 5,-1 7,-1 1,1 2,1 2,2 0,0 0,1 0,1 -1,2 -3,2 -5,2zm-3 4c0,-1 1,-2 1,-2 2,0 3,0 5,0 0,0 1,1 1,2 -2,0 -5,0 -7,0zm-5 4c-1,0 -1,0 -1,-1 6,-2 13,-2 18,0 0,0 1,0 1,1 -1,1 -5,0 -6,0 -2,0 -5,0 -7,0 -2,0 -4,0 -5,0zm-27 18c-1,0 -1,0 -1,0 2,-1 4,-2 6,-3 2,-2 5,-4 7,-6 3,-1 5,-2 7,-4 3,-1 6,-2 9,-3 1,0 2,-1 3,-1 3,0 7,0 10,0 3,1 6,2 9,3 0,1 1,1 1,1 3,2 6,4 9,5 4,3 8,6 12,8 -1,0 -2,0 -4,0 -6,-2 -13,-4 -19,-6 -5,0 -10,-1 -15,-1 -3,0 -6,0 -8,1 -9,1 -18,5 -26,6zm-17 9c-2,0 -5,-1 -7,-1 0,-2 0,-5 0,-7 2,0 3,1 4,3 2,0 4,0 6,0 10,0 21,-4 31,-7 1,0 3,0 4,-1 2,0 4,0 6,-1 2,0 4,0 5,0 3,0 5,0 7,0 5,0 10,1 15,2 5,2 10,3 15,5 3,0 5,1 8,1 5,1 9,1 14,1 1,-2 2,-3 4,-3 0,2 0,4 0,7 -1,0 -2,0 -3,0 -7,1 -14,0 -22,-1 -1,0 -3,0 -5,-1 -7,-1 -13,-3 -20,-4 -2,0 -3,-1 -5,-1 -3,0 -5,0 -7,0 -2,0 -4,1 -6,1 -10,1 -19,4 -28,6 -3,0 -6,0 -8,1 -3,0 -6,0 -8,0zm0 -9c-3,0 -1,-3 0,-5 0,0 0,0 0,0 1,2 3,5 0,5zm-1 3c0,0 0,0 -1,-1 0,0 0,0 0,0 0,0 0,0 1,0 0,0 1,-1 2,0 0,0 0,0 0,1 0,0 -1,0 -2,0zm-24 8c-1,0 -2,0 -2,0 0,0 0,0 0,0 0,0 0,-1 0,-1 1,0 2,0 3,0 0,1 0,1 0,1 0,0 -1,0 -1,0zm0 -2c-3,-1 -1,-3 0,-4 0,0 0,0 0,0 1,1 2,3 0,4 0,0 0,0 0,0zm20 7c-2,-1 -4,-2 -6,-2 -3,-1 -6,-1 -9,-2 1,-1 2,-2 3,-3 1,0 2,-1 3,-2 1,0 2,-1 3,-1 1,0 2,-1 3,-1 0,2 0,3 0,5 0,0 1,1 1,2 0,0 2,3 2,4 0,0 0,0 0,0zm1 4c-2,-1 -4,-2 -6,-3 -3,-1 -7,-1 -10,-2 -3,0 -5,-1 -8,-1 -1,-1 -1,-1 -2,-1 8,0 17,1 24,4 1,0 1,0 2,1 0,0 0,1 0,2 0,0 0,0 0,0zm1 4c-1,-1 -2,-1 -3,-2 -3,-1 -6,-2 -10,-3 -1,0 -3,0 -4,-1 -4,0 -8,-1 -12,-1 0,-1 0,-3 0,-4 1,0 3,2 3,2 2,1 4,1 6,1 6,1 14,2 20,6 0,0 0,1 0,2zm50 112c-20,0 -39,0 -59,0 0,-11 0,-21 0,-31 3,0 6,0 10,0 0,-9 1,-17 1,-26 0,-1 0,-1 0,-2 0,0 -1,-1 -1,-2 0,0 0,0 1,0 0,-2 -1,-4 -2,-6 0,0 0,0 -1,0 0,-2 0,-5 0,-7 -3,-1 -4,-5 -3,-9 -2,1 -3,1 -4,0 0,-1 0,-1 0,-1 0,0 -1,-1 -1,-1 0,-1 0,-1 0,-2 -1,0 -2,0 -2,-1 0,-1 0,-1 0,-2 -2,-1 -3,-2 -4,-4 0,-1 0,-2 0,-3 -1,0 -2,0 -2,0 -1,0 -2,0 -3,0 -1,-2 -1,-4 -1,-6 0,-1 1,-3 1,-4 -1,-3 -2,-7 -1,-9 0,0 0,-1 0,-1 8,1 16,4 22,7 0,-1 0,-2 0,-3 0,-2 0,-3 0,-5 -1,-3 -3,-5 -4,-8 0,0 0,0 0,0 3,0 7,0 10,0 5,0 10,-1 15,-1 6,-2 13,-3 19,-5 4,0 8,-1 12,-1 7,0 13,0 20,2 5,1 9,2 14,3 2,1 4,1 5,1 3,0 6,1 9,1 3,0 5,0 8,0 1,0 4,-1 5,0 -1,1 -2,3 -2,5 -1,1 -1,2 -1,3 -1,2 -1,5 -1,8 6,-4 14,-6 22,-7 0,0 0,1 0,2 1,2 0,5 -1,7 0,2 1,3 1,5 0,0 0,1 0,2 0,1 -1,3 -1,4 -1,0 -1,0 -2,-1 -1,0 -2,1 -3,1 0,1 0,3 0,4 -1,0 -1,1 -1,1 -1,1 -2,2 -3,2 0,1 0,1 0,2 0,1 -1,1 -2,1 0,1 1,1 1,2 -1,0 -1,0 -2,1 0,1 0,1 -1,2 0,0 -1,-1 -2,-1 0,3 0,6 -2,8 -1,0 -1,1 -2,1 0,2 0,5 0,7 0,0 -1,0 -1,0 0,2 -1,4 -1,5 0,1 1,1 0,2 0,1 -1,1 -1,1 1,9 1,18 2,28 3,0 6,0 9,0 1,10 1,20 1,31 -24,0 -47,0 -71,0z"/>
    <path class="fil4" d="M224 49c-2,0 -3,1 -4,2 -2,2 -2,3 -2,5 0,2 0,4 1,5 2,1 3,2 5,2 2,0 4,-1 5,-2 1,-1 2,-3 2,-5 0,-2 -1,-3 -2,-5 -1,-1 -3,-2 -5,-2zm0 1c2,0 3,1 4,2 1,1 2,3 2,4 0,2 -1,3 -2,4 -1,1 -2,2 -4,2 -1,0 -3,-1 -4,-2 -1,-1 -1,-2 -1,-4 0,-1 0,-3 1,-4 1,-1 3,-2 4,-2zm-2 2l0 8 1 0 0 -3 1 0 2 3 2 0 -2 -4c1,0 2,-1 2,-2 0,-1 -2,-2 -4,-2l-2 0zm1 1l1 0c1,0 2,1 2,1 0,1 -1,2 -2,2l-1 0 0 -3z"/>
   </g>
   <g>
    <path class="fil5" d="M635 162c5,4 13,6 23,6 19,0 32,-12 32,-29 0,-7 -3,-12 -7,-17 -4,-4 -11,-7 -19,-11 -9,-5 -14,-8 -14,-15 0,-6 5,-11 13,-11 8,0 14,5 17,12l1 0c1,-4 3,-9 5,-14 -6,-4 -13,-6 -21,-6 -18,0 -30,11 -30,26 0,14 9,20 24,28 9,5 15,8 15,16 0,7 -6,13 -15,13 -9,0 -16,-6 -18,-16l-2 0c-1,7 -3,13 -4,18zm79 4c2,0 5,-1 7,-1 2,0 5,1 7,1 4,-13 8,-27 13,-41 5,15 9,29 12,41 3,0 5,-1 7,-1 3,0 5,1 7,1 7,-21 14,-41 21,-61 -2,1 -3,1 -5,1 -1,0 -3,0 -5,-1 -3,13 -8,27 -13,43 -4,-16 -9,-30 -12,-43 -2,1 -5,1 -7,1 -3,0 -5,0 -8,-1 -3,14 -7,28 -12,43 -4,-12 -8,-26 -13,-43 -3,1 -6,1 -9,1 -3,0 -6,0 -9,-1 6,20 13,40 19,61zm112 -33l0 14c0,8 -4,12 -9,12 -5,0 -8,-4 -8,-11 0,-9 5,-13 17,-15zm0 25c1,6 6,9 12,9 3,0 8,-1 13,-3l0 -3 0 0c-8,0 -9,-3 -9,-12l0 -2 0 -23 0 0c0,-13 -8,-21 -23,-21 -8,0 -16,4 -23,10 1,3 2,6 3,8 4,-6 8,-10 14,-10 7,0 12,5 12,13 0,1 0,1 0,2 -5,4 -12,5 -20,8 -9,3 -13,8 -13,16 0,11 6,18 17,18 7,0 13,-4 17,-10zm33 8c4,0 7,-1 10,-1 3,0 6,1 9,1 0,-4 -1,-8 -1,-12l0 -20c0,-13 2,-20 11,-20 10,0 10,8 10,26 0,6 0,15 -1,26 3,0 6,-1 9,-1 4,0 7,1 10,1 0,-4 -1,-8 -1,-12l0 -20c0,-13 2,-20 11,-20 9,0 10,8 10,23 0,9 0,18 -1,29 3,0 6,-1 9,-1 3,0 7,1 10,1 -1,-7 -1,-15 -1,-23l0 -8c0,-12 0,-20 -4,-25 -4,-4 -9,-6 -15,-6 -9,0 -15,4 -20,12 -3,-8 -10,-12 -18,-12 -8,0 -14,3 -19,10l0 -9c-3,1 -6,1 -9,1 -3,0 -6,0 -9,-1 1,14 1,24 1,31 0,6 0,16 -1,30zm111 -84c0,6 5,10 10,10 5,0 10,-4 10,-10 0,-5 -5,-9 -10,-9 -5,0 -10,4 -10,9zm0 84c4,0 7,-1 10,-1 3,0 6,1 9,1 0,-10 -1,-20 -1,-30 0,-11 1,-21 1,-31 -3,1 -6,1 -9,1 -3,0 -6,0 -10,-1 1,10 1,20 1,31 0,10 0,20 -1,30zm35 0c3,0 6,-1 10,-1 3,0 6,1 9,1 -1,-13 -1,-23 -1,-31 0,-14 3,-21 11,-21 9,0 10,7 10,22 0,13 0,23 -1,30 3,0 6,-1 10,-1 3,0 6,1 9,1 -1,-7 -1,-14 -1,-21 0,-8 0,-13 0,-16 0,-9 0,-15 -4,-19 -3,-4 -8,-6 -15,-6 -8,0 -14,3 -19,10l0 -9c-3,1 -6,1 -9,1 -3,0 -6,0 -9,-1 1,10 1,20 1,31 0,10 0,20 -1,30zm103 -33l0 14c0,8 -3,12 -8,12 -6,0 -8,-4 -8,-11 0,-9 5,-13 16,-15zm1 25c1,6 5,9 11,9 4,0 9,-1 14,-3l0 -3 -1 0c-7,0 -8,-3 -8,-12l0 -2 0 -23 0 0c0,-13 -8,-21 -23,-21 -8,0 -16,4 -23,10 1,3 2,6 3,8 4,-6 8,-10 14,-10 7,0 12,5 12,13 0,1 0,1 0,2 -5,4 -12,5 -20,8 -9,3 -14,8 -14,16 0,11 7,18 18,18 7,0 13,-4 17,-10zm33 8c3,0 7,-1 10,-1 3,0 6,1 9,1 0,-7 -1,-16 -1,-28 0,-12 3,-18 12,-18 2,0 5,1 8,2 0,-3 -1,-6 -1,-9 0,-3 1,-6 1,-10l0 0c-10,0 -17,7 -20,18l-1 0c0,-4 1,-9 1,-16 -3,1 -6,1 -9,1 -3,0 -6,0 -9,-1 1,9 1,19 1,31 0,11 0,21 -1,30zm79 -33l0 14c0,8 -3,12 -8,12 -6,0 -8,-4 -8,-11 0,-9 5,-13 16,-15zm1 25c1,6 5,9 11,9 4,0 9,-1 14,-3l0 -3 -1 0c-7,0 -8,-3 -8,-12l0 -2 0 -23 0 0c0,-13 -8,-21 -23,-21 -8,0 -16,4 -23,10 1,3 2,6 3,8 4,-6 8,-10 14,-10 7,0 12,5 12,13 0,1 0,1 0,2 -5,4 -12,5 -20,8 -9,3 -14,8 -14,16 0,11 7,18 18,18 7,0 13,-4 17,-10zm43 28c-3,5 -6,11 -9,15 2,0 4,-1 6,-1 2,0 4,1 6,1 12,-30 25,-62 40,-96 -1,1 -3,1 -5,1 -2,0 -3,0 -5,-1l-15 39c-6,-13 -11,-26 -15,-39 -3,1 -7,1 -10,1 -3,0 -7,0 -10,-1l26 61 -9 20zm82 -53l0 14c0,8 -4,12 -9,12 -5,0 -8,-4 -8,-11 0,-9 5,-13 17,-15zm0 25c2,6 6,9 12,9 4,0 9,-1 13,-3l0 -3 0 0c-8,0 -9,-3 -9,-12l0 -2 1 -23 0 0c0,-13 -9,-21 -24,-21 -8,0 -15,4 -23,10 1,3 2,6 3,8 4,-6 9,-10 14,-10 8,0 12,5 12,13 0,1 0,1 0,2 -5,4 -12,5 -20,8 -9,3 -13,8 -13,16 0,11 6,18 17,18 8,0 14,-4 17,-10zm34 8c3,0 6,-1 9,-1 3,0 6,1 9,1 0,-13 -1,-23 -1,-31 0,-14 3,-21 11,-21 9,0 10,7 10,22 0,13 0,23 -1,30 4,0 7,-1 10,-1 3,0 6,1 9,1 0,-7 -1,-14 -1,-21 0,-8 1,-13 1,-16 0,-9 -1,-15 -4,-19 -4,-4 -9,-6 -15,-6 -8,0 -15,3 -20,10l0 -9c-3,1 -6,1 -9,1 -2,0 -5,0 -8,-1 0,10 1,20 1,31 0,10 -1,20 -1,30zm104 -4c6,4 13,6 23,6 19,0 32,-12 32,-29 0,-7 -2,-12 -7,-17 -4,-4 -10,-7 -19,-11 -9,-5 -13,-8 -13,-15 0,-6 5,-11 12,-11 8,0 15,5 17,12l2 0c1,-4 2,-9 4,-14 -6,-4 -13,-6 -21,-6 -18,0 -30,11 -30,26 0,14 9,20 24,28 9,5 15,8 15,16 0,7 -6,13 -14,13 -10,0 -17,-6 -19,-16l-2 0c-1,7 -2,13 -4,18zm98 -29l0 14c0,8 -3,12 -9,12 -5,0 -8,-4 -8,-11 0,-9 5,-13 17,-15zm0 25c2,6 6,9 12,9 4,0 9,-1 13,-3l0 -3 0 0c-8,0 -9,-3 -9,-12l0 -2 1 -23 0 0c0,-13 -9,-21 -24,-21 -8,0 -15,4 -23,10 2,3 3,6 3,8 4,-6 9,-10 15,-10 7,0 12,5 12,13 0,1 0,1 0,2 -6,4 -13,5 -21,8 -9,3 -13,8 -13,16 0,11 7,18 17,18 8,0 14,-4 17,-10zm34 8c3,0 6,-1 9,-1 3,0 6,1 9,1 0,-13 0,-23 0,-31 0,-14 2,-21 10,-21 10,0 11,7 11,22 0,13 -1,23 -1,30 3,0 6,-1 9,-1 3,0 6,1 10,1 -1,-7 -1,-14 -1,-21 0,-8 0,-13 0,-16 0,-9 0,-15 -4,-19 -4,-4 -9,-6 -15,-6 -8,0 -15,3 -20,10l0 -9c-3,1 -5,1 -8,1 -3,0 -6,0 -9,-1 0,10 1,20 1,31 0,10 -1,20 -1,30zm72 -17c0,6 -1,11 -1,14 5,3 11,5 19,5 14,0 24,-9 24,-22 0,-11 -7,-14 -21,-19 -7,-3 -11,-5 -11,-10 0,-4 4,-8 10,-8 6,0 11,4 15,12l1 0c1,-4 2,-8 4,-12 -6,-4 -12,-5 -19,-5 -14,0 -23,8 -23,20 0,9 5,14 15,18 10,4 15,5 15,11 0,6 -3,9 -9,9 -8,0 -14,-5 -17,-13l-2 0zm58 -37l0 7c0,17 -1,28 -1,32 0,11 6,17 17,17 5,0 10,-2 15,-4l0 -5c-3,1 -6,2 -8,2 -6,0 -7,-6 -7,-22l0 -5c0,-6 1,-13 1,-22 5,0 10,0 13,1 -1,-2 -1,-3 -1,-4 0,-1 0,-2 1,-3 -5,0 -9,0 -13,0l0 -4c0,-3 0,-9 1,-19l-1 -1c-5,2 -11,5 -18,7 1,4 1,8 1,12 0,2 0,4 0,5l-2 0c-2,0 -4,0 -7,0 0,1 1,2 1,3 0,1 -1,2 -1,4 2,-1 5,-1 7,-1l2 0zm39 54c3,0 6,-1 9,-1 3,0 7,1 10,1 -1,-13 -1,-23 -1,-31 0,-14 2,-21 11,-21 9,0 10,7 10,22 0,13 -1,23 -1,30 3,0 6,-1 9,-1 3,0 6,1 10,1 -1,-7 -1,-14 -1,-21 0,-8 0,-13 0,-16 0,-9 0,-15 -4,-19 -4,-4 -9,-6 -15,-6 -8,0 -15,3 -20,10l0 -19c0,-9 1,-17 2,-25 -3,1 -7,1 -10,1 -3,0 -6,0 -9,-1 1,14 1,30 1,51 0,19 0,34 -1,45zm103 -33l0 14c0,8 -3,12 -9,12 -5,0 -8,-4 -8,-11 0,-9 5,-13 17,-15zm0 25c2,6 6,9 12,9 4,0 9,-1 13,-3l0 -3 0 0c-8,0 -9,-3 -9,-12l0 -2 1 -23 0 0c0,-13 -9,-21 -24,-21 -8,0 -15,4 -23,10 2,3 2,6 3,8 4,-6 9,-10 14,-10 8,0 13,5 13,13 0,1 0,1 -1,2 -5,4 -12,5 -20,8 -9,3 -13,8 -13,16 0,11 6,18 17,18 8,0 14,-4 17,-10z"/>
    <g>
     <path class="fil1" d="M281 162c-1,-1 -3,-2 -4,-4 1,-13 1,-27 1,-40 0,-12 -1,-22 -1,-33 1,-2 3,-3 4,-5 14,0 29,1 43,1 12,1 25,5 28,17 0,1 0,3 0,5 -2,9 -11,13 -19,15 0,0 0,0 0,0 7,2 15,5 20,10 1,2 2,3 3,5 0,1 1,2 1,4 0,2 0,3 0,5 -1,15 -18,18 -30,20 -16,0 -31,0 -46,0zm86 4c-2,-4 -5,-7 -8,-11 13,-18 26,-36 38,-53 -2,-4 -5,-7 -8,-11 5,-3 21,-15 23,-14 8,13 17,25 25,38 9,12 18,24 27,36 -8,5 -16,10 -24,15 -11,-17 -23,-35 -34,-52 -5,6 -10,12 -14,18 -9,11 -17,23 -25,34zm107 -3c-2,-2 -3,-3 -5,-4 0,-13 1,-25 1,-37 0,-13 -1,-26 -1,-38 1,-1 3,-3 4,-4 14,0 29,0 43,1 2,0 5,0 7,1 12,4 19,10 20,22 0,7 -1,12 -6,17 -5,6 -12,8 -19,10 -7,1 -15,2 -22,3 1,9 2,19 3,29 -8,0 -17,0 -25,0zm21 -36c0,-13 1,-27 1,-40 8,1 15,3 20,10 1,2 1,3 2,5 1,3 1,8 0,12 -3,7 -11,11 -18,13 -1,0 -3,0 -5,0zm58 36c-2,-2 -3,-4 -5,-5 5,-1 10,-3 13,-7 1,-1 1,-2 2,-3 0,-1 0,-3 0,-4 -2,-10 -8,-20 -12,-29 0,-3 -1,-5 -1,-8 -1,-2 -1,-4 -1,-6 1,-6 3,-10 7,-15 8,-5 17,-8 26,-8 1,2 2,3 4,5 -5,1 -8,2 -12,6 -1,1 -1,2 -2,3 0,4 0,8 1,12 4,8 7,16 10,24 1,6 2,11 1,16 -1,2 -2,4 -3,6 -2,1 -3,3 -4,4 -5,2 -9,4 -14,6 -3,1 -7,2 -10,3zm-250 -45c0,-10 0,-21 1,-31 7,0 16,2 21,8 1,2 2,3 2,5 0,2 0,3 0,5 -2,11 -15,13 -24,13zm0 37c1,-10 1,-21 1,-31 10,1 23,2 28,13 3,16 -18,17 -29,18z"/>
     <path class="fil2" d="M402 161c-8,-2 -13,-6 -12,-15 1,-8 12,-13 20,-10 5,3 7,5 8,10 0,1 0,2 1,3 -2,9 -8,12 -17,12z"/>
    </g>
   </g>
  </g>
 </g>
</svg>
